# xmcd
#
# Track frame offsets: 
#        182
#        23380
#        47900
#        70932
#        93967
#        118857
#        136780
#        158865
#        181322
#        206452
#        231207
#        252645
#
# Disc length: 3656 seconds
#
# Revision: 2
# Processed by: cddbd v1.5.2PL0 Copyright (c) Steve Scherf et al.
# Submitted via: ExactAudioCopy v0.99pb5
#
DISCID=9f0e460c
DTITLE=Elio Revé y su charangon - Vol II
DYEAR=1994
DGENRE=Salsa
TTITLE0=Runñidera
TTITLE1=Rumbero latinoamericano
TTITLE2=Changui campanero
TTITLE3=Papá Elegguá
TTITLE4=Con mis mañas se revuelven
TTITLE5=Pu pu Chan Chan Ahi viene el tren
TTITLE6=Salgado
TTITLE7=Espero que pase el tiempo
TTITLE8=El palo de anón
TTITLE9=Changui clave
TTITLE10=¡Qué cuento es ése!
TTITLE11=Âqui todo se resuelve
EXTD=YEAR: 1994
EXTT0=
EXTT1=
EXTT2=
EXTT3=
EXTT4=
EXTT5=
EXTT6=
EXTT7=
EXTT8=
EXTT9=
EXTT10=
EXTT11=
PLAYORDER=
